<svg version="1.1" xmlns="http://www.w3.org/2000/svg" width="48" height="48"><defs><linearGradient x1="9.82523" y1="9.95792" x2="68.95151" y2="68.81883" gradientUnits="userSpaceOnUse" id="color-1"><stop offset="0" stop-color="#000000" stop-opacity="0.3"></stop><stop offset="1" stop-color="#000000" stop-opacity="0"></stop></linearGradient><filter id="dropshadow-base"><feColorMatrix type="matrix" values="0 0 0 0 0  0 0 0 0 0  0 0 0 0 0  0 0 0 .8 0"></feColorMatrix> <feOffset dx="0" dy="1"></feOffset> <feGaussianBlur stdDeviation="1"></feGaussianBlur> <feComposite in="SourceGraphic"></feComposite></filter><filter id="dropshadow-banner" x="-10%" y="-10%" width="120%" height="130%"><feColorMatrix type="matrix" values="0 0 0 0 0  0 0 0 0 0  0 0 0 0 0  0 0 0 .4 0"></feColorMatrix> <feOffset dx="0" dy="1"></feOffset> <feGaussianBlur stdDeviation="0.5"></feGaussianBlur> <feComposite in="SourceGraphic"></feComposite></filter></defs><g fill="none" fill-rule="nonzero" stroke="none" stroke-width="none" stroke-linecap="butt" stroke-linejoin="miter" stroke-miterlimit="10" stroke-dasharray="" stroke-dashoffset="0" font-family="none" font-weight="none" font-size="none" text-anchor="none" style="mix-blend-mode: normal"><path d="M2,24c0,-12.15026 9.84974,-22 22,-22c12.15026,0 22,9.84974 22,22c0,12.15026 -9.84974,22 -22,22c-12.15026,0 -22,-9.84974 -22,-22z" id="base 1 9" fill="#2d48a8" stroke-width="1"></path><path d="M18.12253,11.12161l7.4259,7.4259c0.78411,-0.29375 1.61818,-0.47414 2.48201,-0.47414c1.87668,0 3.2312,0.66445 4.19276,1.62602c0,0 0,0 0,0c0,0 0,0 0,0l4.92098,4.92098l1.0306,0l6.60962,6.60962c-2.65953,7.64637 -9.41944,13.37327 -17.64704,14.54801l-15.26431,-15.26431c-1.01124,-1.01124 -1.55619,-2.47161 -1.55619,-4.18439c0,-2.93068 2.44255,-6.83464 3.72597,-8.75154l-4.21759,-4.21759c0.34334,-0.42137 0.81155,-0.88177 1.36558,-1.44361c0.39797,-0.39797 2.19275,-1.95864 4.25282,-1.95864c0.73911,0 1.8343,0.31909 2.6789,1.16369z" fill="url(#color-1)" stroke-width="1"></path><path d="M12.57202,16.01329c1.09247,-1.11588 2.18493,-2.1147 2.67654,-1.91182c0.77253,0.31994 -0.01561,1.62309 -0.4682,2.38002c-0.39017,0.65548 -4.46351,6.06319 -4.46351,9.84781c0,1.99765 0.74132,3.65196 2.0991,4.65079c1.1705,0.86617 2.70776,1.13148 4.12016,0.71791c1.66991,-0.49161 3.0433,-2.17713 4.77564,-4.31524c1.88841,-2.32539 4.41669,-5.36869 6.36752,-5.36869c2.54389,0 2.5751,1.57627 2.74677,2.8014c-5.91493,1.01443 -8.40419,5.73545 -8.40419,8.39639c0,2.66094 2.24736,4.83026 5.00194,4.83026c2.53608,0 6.70307,-2.07569 7.31953,-9.52007h3.83144v-3.90167h-3.85485c-0.2341,-2.5751 -1.70113,-6.547 -6.28949,-6.547c-3.5115,0 -6.53139,2.98087 -7.70189,4.4401c-0.90519,1.13148 -3.20717,3.86265 -3.56612,4.25282c-0.39797,0.4604 -1.05345,1.31096 -1.74014,1.31096c-0.6945,0 -1.11588,-1.30316 -0.56964,-3.00428c0.54623,-1.70893 2.18493,-4.46351 2.88723,-5.48574c1.22512,-1.77916 2.02106,-3.00428 2.02106,-5.11899c0,-3.43347 -2.55949,-4.51033 -3.91727,-4.51033c-2.06008,0 -3.85485,1.56067 -4.25282,1.95864c-0.55404,0.56184 -1.02224,1.02224 -1.36558,1.44362zM27.07061,34.22627c-0.48381,0 -1.14709,-0.40577 -1.14709,-1.13148c0,-0.9364 1.13148,-3.43347 4.48692,-4.31524c-0.48381,4.206 -2.24736,5.44673 -3.33983,5.44673z" fill="none" stroke-width="0"></path><path d="M9.82524,13.36015c0.34335,-0.42138 0.81155,-0.88178 1.36558,-1.44362c0.39797,-0.39797 2.19274,-1.95864 4.25282,-1.95864c1.35778,0 3.91727,1.07686 3.91727,4.51033c0,2.1147 -0.79594,3.33983 -2.02106,5.11899c-0.7023,1.02224 -2.341,3.77681 -2.88723,5.48574c-0.54623,1.70113 -0.12485,3.00428 0.56964,3.00428c0.68669,0 1.34217,-0.85056 1.74014,-1.31096c0.35895,-0.39017 2.66094,-3.12133 3.56612,-4.25282c1.1705,-1.45922 4.19039,-4.4401 7.70189,-4.4401c4.58836,0 6.05539,3.9719 6.28949,6.547h3.85485v3.90167h-3.83144c-0.61646,7.44438 -4.78344,9.52007 -7.31953,9.52007c-2.75458,0 -5.00194,-2.16933 -5.00194,-4.83026c0,-2.66094 2.48926,-7.38196 8.40419,-8.39639c-0.17167,-1.22512 -0.20289,-2.8014 -2.74677,-2.8014c-1.95083,0 -4.47911,3.0433 -6.36752,5.36869c-1.73234,2.13811 -3.10573,3.82363 -4.77564,4.31524c-1.4124,0.41358 -2.94966,0.14826 -4.12016,-0.71791c-1.35778,-0.99883 -2.0991,-2.65313 -2.0991,-4.65079c0,-3.78462 4.07334,-9.19233 4.46351,-9.84781c0.45259,-0.75692 1.24073,-2.06008 0.4682,-2.38002c-0.49161,-0.20289 -1.58408,0.79594 -2.67654,1.91182zM30.41044,28.77954c-3.35543,0.88178 -4.48692,3.37884 -4.48692,4.31524c0,0.72571 0.66328,1.13148 1.14709,1.13148c1.09247,0 2.85602,-1.24073 3.33983,-5.44673z" fill="#ffffff" stroke-width="0"></path><path d="M2,24c0,-12.15026 9.84974,-22 22,-22c12.15026,0 22,9.84974 22,22c0,12.15026 -9.84974,22 -22,22c-12.15026,0 -22,-9.84974 -22,-22z" id="base 1 5 1" fill="none" stroke-width="1"></path><path d="M2,24c0,-12.15026 9.84974,-22 22,-22c12.15026,0 22,9.84974 22,22c0,12.15026 -9.84974,22 -22,22c-12.15026,0 -22,-9.84974 -22,-22z" id="base 1 1 1" fill="none" stroke-width="1"></path><g fill="#000000" stroke-width="1" font-family="Roboto, sans-serif" font-weight="400" font-size="14" text-anchor="start"></g><rect x="2" y="2" width="44" height="22" fill="none" stroke-width="1"></rect><path d="M2,24v-22h44v22z" fill="none" stroke-width="1"></path><path d="M2,24v-22h44v22z" fill="none" stroke-width="1"></path><path d="M2,24v-22h44v22z" fill="none" stroke-width="1"></path><path d="M2,24v-22h44v22z" fill="none" stroke-width="1"></path><g fill="#000000" stroke-width="1" font-family="Roboto, sans-serif" font-weight="400" font-size="14" text-anchor="start"></g><rect x="2" y="2" width="44" height="22" fill="none" stroke-width="1"></rect><path d="M2,24v-22h44v22z" fill="none" stroke-width="1"></path><path d="M2,24v-22h44v22z" fill="none" stroke-width="1"></path><path d="M2,24v-22h44v22z" fill="none" stroke-width="1"></path><path d="M2,24v-22h44v22z" fill="none" stroke-width="1"></path></g></svg>