<?xml version="1.0" encoding="iso-8859-1"?>
<!-- Generator: Adobe Illustrator 19.0.0, SVG Export Plug-In . SVG Version: 6.00 Build 0)  -->
<svg version="1.1" id="Capa_1" xmlns="http://www.w3.org/2000/svg" xmlns:xlink="http://www.w3.org/1999/xlink" x="0px" y="0px"
	 viewBox="0 0 512.001 512.001" style="enable-background:new 0 0 512.001 512.001;" xml:space="preserve">
<circle style="fill:#343331;" cx="256" cy="256" r="256"/>
<g>
	<path style="fill:#34ABE0;" d="M469.869,206.196c-3.882,0-7.029-3.147-7.029-7.029v-11.259c0-3.882,3.147-7.029,7.029-7.029
		c3.882,0,7.029,3.147,7.029,7.029v11.259C476.897,203.05,473.75,206.196,469.869,206.196z"/>
	<path style="fill:#34ABE0;" d="M469.869,263.776c-3.882,0-7.029-3.147-7.029-7.029V245.49c0-3.882,3.147-7.029,7.029-7.029
		c3.882,0,7.029,3.147,7.029,7.029v11.258C476.897,260.629,473.75,263.776,469.869,263.776z"/>
	<path style="fill:#34ABE0;" d="M504.288,229.358h-11.259c-3.882,0-7.029-3.147-7.029-7.029c0-3.882,3.147-7.029,7.029-7.029h11.259
		c3.882,0,7.029,3.147,7.029,7.029C511.317,226.21,508.169,229.358,504.288,229.358z"/>
	<path style="fill:#34ABE0;" d="M446.707,229.358H435.45c-3.882,0-7.029-3.147-7.029-7.029c0-3.882,3.147-7.029,7.029-7.029h11.258
		c3.882,0,7.029,3.147,7.029,7.029C453.735,226.21,450.589,229.358,446.707,229.358z"/>
	<path style="fill:#34ABE0;" d="M391.867,22.724c-3.882,0-7.029-3.147-7.029-7.029V7.029c0-3.882,3.147-7.029,7.029-7.029
		c3.882,0,7.029,3.147,7.029,7.029v8.666C398.896,19.578,395.749,22.724,391.867,22.724z"/>
	<path style="fill:#34ABE0;" d="M391.867,67.048c-3.882,0-7.029-3.147-7.029-7.029v-8.666c0-3.882,3.147-7.029,7.029-7.029
		c3.882,0,7.029,3.147,7.029,7.029v8.666C398.896,63.901,395.749,67.048,391.867,67.048z"/>
	<path style="fill:#34ABE0;" d="M418.362,40.553h-8.666c-3.882,0-7.029-3.147-7.029-7.029s3.147-7.029,7.029-7.029h8.666
		c3.882,0,7.029,3.147,7.029,7.029S422.244,40.553,418.362,40.553z"/>
	<path style="fill:#34ABE0;" d="M374.038,40.553h-8.666c-3.882,0-7.029-3.147-7.029-7.029s3.147-7.029,7.029-7.029h8.666
		c3.882,0,7.029,3.147,7.029,7.029S377.92,40.553,374.038,40.553z"/>
</g>
<path style="fill:#FF5A5A;" d="M305.852,124.759c-1.274,0-2.564-0.346-3.724-1.073c-3.289-2.061-4.286-6.398-2.226-9.687
	c10.311-16.463,18.895-32.581,25.513-47.906c1.539-3.563,5.673-5.204,9.239-3.666c3.563,1.539,5.205,5.676,3.665,9.239
	c-6.899,15.976-15.818,32.729-26.506,49.795C310.481,123.591,308.193,124.759,305.852,124.759z"/>
<path style="fill:#34ABE0;" d="M215.974,234.747c-1.874,0-3.744-0.745-5.127-2.22c-2.656-2.831-2.514-7.278,0.317-9.935
	c0.323-0.303,32.638-30.776,64.889-73.917c2.324-3.109,6.729-3.746,9.839-1.421c3.109,2.324,3.745,6.729,1.421,9.839
	c-33.031,44.182-65.179,74.484-66.532,75.752C219.423,234.116,217.697,234.747,215.974,234.747z"/>
<path style="fill:#F9F9F9;" d="M278.149,244.885c-1.908,0-3.81-0.772-5.196-2.294c-2.614-2.869-2.41-7.314,0.46-9.93
	c32.72-29.825,97.504-82.769,163.752-102.267c3.723-1.095,7.631,1.034,8.727,4.758c1.096,3.724-1.034,7.631-4.758,8.727
	c-63.544,18.702-126.424,70.161-158.251,99.171C281.534,244.279,279.839,244.885,278.149,244.885z"/>
<g>
	<path style="fill:#FF5A5A;" d="M290.023,308.794c-2.069,0-4.119-0.909-5.507-2.655c-2.416-3.039-1.91-7.461,1.128-9.875
		c2.334-1.855,58.024-45.266,133.17-30.816c3.812,0.732,6.308,4.417,5.575,8.229c-0.732,3.813-4.415,6.314-8.229,5.575
		c-68.879-13.246-121.248,27.602-121.769,28.017C293.099,308.294,291.556,308.794,290.023,308.794z"/>
	<path style="fill:#FF5A5A;" d="M194.779,177.404c-1.061,0-2.137-0.24-3.148-0.749c-3.469-1.742-4.869-5.966-3.126-9.435
		c11.361-22.624,23.205-58.429,15.111-100.516c-0.734-3.812,1.763-7.496,5.575-8.229c3.811-0.734,7.496,1.763,8.229,5.575
		c8.84,45.966-4.013,84.906-16.353,109.479C199.833,175.985,197.354,177.404,194.779,177.404z"/>
</g>
<path style="fill:#F9F9F9;" d="M286.378,370.562l-115.545,57.584l-67.271,33.541c-34.105-25.318-61.701-58.922-79.799-97.834
	l11.128-22.329l52.987-106.318l21.002-42.141L286.378,370.562z"/>
<path style="fill:#E8E8E8;" d="M286.378,370.562l-182.826,91.115c-9.132-6.781-17.795-14.158-25.945-22.079l167.518-123.914
	L286.378,370.562z"/>
<g>
	<path style="fill:#FF5A5A;" d="M76.667,438.689c-21.828-21.431-39.842-46.749-52.903-74.825v-0.01l11.139-22.329L76.667,438.689z"
		/>
	<polygon style="fill:#FF5A5A;" points="286.379,370.559 170.839,428.138 152.074,384.51 87.885,235.211 108.888,193.068 
		237.301,321.481 	"/>
</g>
<polygon style="fill:#EA4444;" points="286.379,370.559 170.839,428.138 152.074,384.51 237.301,321.481 245.129,315.683 "/>
<path style="fill:#F9F9F9;" d="M270.098,373.123L106.316,209.341c-7.938-7.938-7.938-20.807,0-28.745l0,0
	c7.938-7.938,20.807-7.938,28.745,0l163.781,163.781c7.938,7.938,7.938,20.807,0,28.745l0,0
	C290.905,381.06,278.035,381.06,270.098,373.123z"/>
<path style="fill:#E8E8E8;" d="M298.843,344.378l-44.069-44.069c7.938,7.938,7.938,20.807,0,28.745s-20.807,7.938-28.745,0
	l44.069,44.069c7.938,7.938,20.807,7.938,28.745,0C306.781,365.185,306.78,352.315,298.843,344.378z"/>
<circle style="fill:#F9F9F9;" cx="163.391" cy="128.011" r="7.029"/>
<circle style="fill:#FF5A5A;" cx="257.317" cy="101.178" r="7.029"/>
<circle style="fill:#34ABE0;" cx="372.328" cy="122.264" r="7.029"/>
<g>
	<circle style="fill:#F9F9F9;" cx="372.328" cy="323.532" r="7.029"/>
	<path style="fill:#F9F9F9;" d="M254.9,10.029l8.735,7.769c0.739,0.657,1.753,0.909,2.714,0.673L277.7,15.68
		c2.418-0.595,4.468,1.841,3.469,4.122l-4.69,10.708c-0.397,0.906-0.322,1.949,0.199,2.789l6.163,9.934
		c1.312,2.116-0.371,4.818-2.848,4.574l-11.633-1.151c-0.984-0.097-1.953,0.296-2.59,1.051l-7.543,8.931
		c-1.607,1.902-4.697,1.136-5.23-1.296l-2.5-11.42c-0.211-0.965-0.885-1.766-1.8-2.139l-10.824-4.415
		c-2.305-0.94-2.532-4.116-0.383-5.374l10.088-5.907c0.854-0.499,1.406-1.387,1.479-2.373l0.854-11.659
		C250.089,9.572,253.039,8.374,254.9,10.029z"/>
</g>
<path style="fill:#FF5A5A;" d="M485.989,69.64l6.115,12.887c0.517,1.09,1.537,1.856,2.728,2.047l14.082,2.268
	c2.999,0.483,4.143,4.196,1.935,6.283l-10.366,9.797c-0.877,0.829-1.289,2.035-1.104,3.228l2.194,14.094
	c0.467,3.002-2.71,5.236-5.377,3.781l-12.521-6.832c-1.06-0.578-2.334-0.598-3.411-0.052l-12.726,6.442
	c-2.71,1.372-5.818-0.959-5.258-3.946l2.628-14.019c0.223-1.186-0.154-2.405-1.004-3.26l-10.059-10.113
	c-2.142-2.154-0.885-5.829,2.127-6.22l14.145-1.833c1.196-0.155,2.24-0.889,2.791-1.962l6.51-12.691
	C480.802,66.835,484.687,66.896,485.989,69.64z"/>
<g>
</g>
<g>
</g>
<g>
</g>
<g>
</g>
<g>
</g>
<g>
</g>
<g>
</g>
<g>
</g>
<g>
</g>
<g>
</g>
<g>
</g>
<g>
</g>
<g>
</g>
<g>
</g>
<g>
</g>
</svg>
